<svg id="add" xmlns="http://www.w3.org/2000/svg"  viewBox="0 0 20 20" >
  <path d="M10.0001 2.5C14.1251 2.5 17.5001 5.875 17.5001 10C17.5001 14.125 14.1251 17.5 10.0001 17.5C5.87512 17.5 2.50012 14.125 2.50012 10C2.50012 5.875 5.87512 2.5 10.0001 2.5ZM10.0001 1.25C5.18762 1.25 1.25012 5.1875 1.25012 10C1.25012 14.8125 5.18762 18.75 10.0001 18.75C14.8126 18.75 18.7501 14.8125 18.7501 10C18.7501 5.1875 14.8126 1.25 10.0001 1.25Z" fill="white"/>
  <path d="M15.0001 9.375H10.6251V5H9.37512V9.375H5.00012V10.625H9.37512V15H10.6251V10.625H15.0001V9.375Z" />
</svg>